<?xml version="1.0" encoding="UTF-8" standalone="no"?>
<!DOCTYPE svg PUBLIC "-//W3C//DTD SVG 1.1//EN"
 "http://www.w3.org/Graphics/SVG/1.1/DTD/svg11.dtd">
<!-- Generated by graphviz version 2.40.1 (20161225.0304)
 -->
<!-- Title: dependencies Pages: 1 -->
<svg width="644pt" height="284pt"
 viewBox="0.00 0.00 644.00 284.00" xmlns="http://www.w3.org/2000/svg" xmlns:xlink="http://www.w3.org/1999/xlink">
<g id="graph0" class="graph" transform="scale(1 1) rotate(0) translate(4 280)">
<title>dependencies</title>
<polygon fill="#ffffff" stroke="transparent" points="-4,4 -4,-280 640,-280 640,4 -4,4"/>
<text text-anchor="start" x="297.0091" y="-42.4" font-family="sans-serif" font-weight="bold" font-size="14.00" fill="#000000">Legend</text>
<polygon fill="#ffffb3" stroke="transparent" points="84,-10 84,-30 104,-30 104,-10 84,-10"/>
<text text-anchor="start" x="107.629" y="-15.4" font-family="sans-serif" font-size="14.00" fill="#000000"> &#160;Declarations</text>
<polygon fill="#8dd3c7" stroke="transparent" points="197,-10 197,-30 217,-30 217,-10 197,-10"/>
<text text-anchor="start" x="220.7251" y="-15.4" font-family="sans-serif" font-size="14.00" fill="#000000"> &#160;Module</text>
<polygon fill="#80b1d3" stroke="transparent" points="283,-10 283,-30 303,-30 303,-10 283,-10"/>
<text text-anchor="start" x="306.7812" y="-15.4" font-family="sans-serif" font-size="14.00" fill="#000000"> &#160;Bootstrap</text>
<polygon fill="#fdb462" stroke="transparent" points="380,-10 380,-30 400,-30 400,-10 380,-10"/>
<text text-anchor="start" x="403.6732" y="-15.4" font-family="sans-serif" font-size="14.00" fill="#000000"> &#160;Providers</text>
<polygon fill="#fb8072" stroke="transparent" points="476,-10 476,-30 496,-30 496,-10 476,-10"/>
<text text-anchor="start" x="499.7258" y="-15.4" font-family="sans-serif" font-size="14.00" fill="#000000"> &#160;Exports</text>
<g id="clust1" class="cluster">
<title>cluster_MessengerModule</title>
<polygon fill="none" stroke="#000000" stroke-dasharray="1,5" points="8,-70 8,-268 628,-268 628,-70 8,-70"/>
</g>
<g id="clust2" class="cluster">
<title>cluster_MessengerModule_declarations</title>
<polygon fill="none" stroke="#000000" points="22,-78 22,-130 614,-130 614,-78 22,-78"/>
</g>
<g id="clust7" class="cluster">
<title>cluster_MessengerModule_exports</title>
<polygon fill="none" stroke="#000000" points="16,-208 16,-260 620,-260 620,-208 16,-208"/>
</g>
<!-- MessengerChatBoxComponent -->
<g id="node1" class="node">
<title>MessengerChatBoxComponent</title>
<polygon fill="#ffffb3" stroke="#000000" points="605.7492,-122 414.2508,-122 414.2508,-86 605.7492,-86 605.7492,-122"/>
<text text-anchor="middle" x="510" y="-99.8" font-family="Times,serif" font-size="14.00" fill="#000000">MessengerChatBoxComponent</text>
</g>
<!-- MessengerModule -->
<g id="node4" class="node">
<title>MessengerModule</title>
<polygon fill="#8dd3c7" stroke="#000000" points="361.1881,-187 358.1881,-191 337.1881,-191 334.1881,-187 240.8119,-187 240.8119,-151 361.1881,-151 361.1881,-187"/>
<text text-anchor="middle" x="301" y="-164.8" font-family="Times,serif" font-size="14.00" fill="#000000">MessengerModule</text>
</g>
<!-- MessengerChatBoxComponent&#45;&gt;MessengerModule -->
<g id="edge1" class="edge">
<title>MessengerChatBoxComponent&#45;&gt;MessengerModule</title>
<path fill="none" stroke="#000000" d="M542.7082,-122.0225C542.7082,-139.3734 542.7082,-163 542.7082,-163 542.7082,-163 371.3697,-163 371.3697,-163"/>
<polygon fill="#000000" stroke="#000000" points="371.3697,-159.5001 361.3697,-163 371.3696,-166.5001 371.3697,-159.5001"/>
</g>
<!-- MessengerMessageComponent -->
<g id="node2" class="node">
<title>MessengerMessageComponent</title>
<polygon fill="#ffffb3" stroke="#000000" points="396.4482,-122 205.5518,-122 205.5518,-86 396.4482,-86 396.4482,-122"/>
<text text-anchor="middle" x="301" y="-99.8" font-family="Times,serif" font-size="14.00" fill="#000000">MessengerMessageComponent</text>
</g>
<!-- MessengerMessageComponent&#45;&gt;MessengerModule -->
<g id="edge2" class="edge">
<title>MessengerMessageComponent&#45;&gt;MessengerModule</title>
<path fill="none" stroke="#000000" d="M301,-122.1061C301,-122.1061 301,-140.991 301,-140.991"/>
<polygon fill="#000000" stroke="#000000" points="297.5001,-140.9909 301,-150.991 304.5001,-140.991 297.5001,-140.9909"/>
</g>
<!-- DynamicHeightDirective -->
<g id="node3" class="node">
<title>DynamicHeightDirective</title>
<polygon fill="#ffffb3" stroke="#000000" points="187.503,-122 30.497,-122 30.497,-86 187.503,-86 187.503,-122"/>
<text text-anchor="middle" x="109" y="-99.8" font-family="Times,serif" font-size="14.00" fill="#000000">DynamicHeightDirective</text>
</g>
<!-- DynamicHeightDirective&#45;&gt;MessengerModule -->
<g id="edge3" class="edge">
<title>DynamicHeightDirective&#45;&gt;MessengerModule</title>
<path fill="none" stroke="#000000" d="M133.7504,-122.0225C133.7504,-139.3734 133.7504,-163 133.7504,-163 133.7504,-163 230.619,-163 230.619,-163"/>
<polygon fill="#000000" stroke="#000000" points="230.6191,-166.5001 240.619,-163 230.619,-159.5001 230.6191,-166.5001"/>
</g>
<!-- MessengerChatBoxComponent  -->
<g id="node5" class="node">
<title>MessengerChatBoxComponent </title>
<polygon fill="#fb8072" stroke="#000000" points="611.7492,-252 416.2508,-252 416.2508,-216 611.7492,-216 611.7492,-252"/>
<text text-anchor="middle" x="514" y="-229.8" font-family="Times,serif" font-size="14.00" fill="#000000">MessengerChatBoxComponent </text>
</g>
<!-- MessengerModule&#45;&gt;MessengerChatBoxComponent  -->
<g id="edge4" class="edge">
<title>MessengerModule&#45;&gt;MessengerChatBoxComponent </title>
<path fill="none" stroke="#000000" stroke-dasharray="5,2" d="M361.4461,-175C413.2425,-175 479.5418,-175 479.5418,-175 479.5418,-175 479.5418,-205.9775 479.5418,-205.9775"/>
<polygon fill="#000000" stroke="#000000" points="476.0419,-205.9774 479.5418,-215.9775 483.0419,-205.9775 476.0419,-205.9774"/>
</g>
<!-- MessengerMessageComponent  -->
<g id="node6" class="node">
<title>MessengerMessageComponent </title>
<polygon fill="#fb8072" stroke="#000000" points="398.4487,-252 203.5513,-252 203.5513,-216 398.4487,-216 398.4487,-252"/>
<text text-anchor="middle" x="301" y="-229.8" font-family="Times,serif" font-size="14.00" fill="#000000">MessengerMessageComponent </text>
</g>
<!-- MessengerModule&#45;&gt;MessengerMessageComponent  -->
<g id="edge5" class="edge">
<title>MessengerModule&#45;&gt;MessengerMessageComponent </title>
<path fill="none" stroke="#000000" stroke-dasharray="5,2" d="M301,-187.1061C301,-187.1061 301,-205.991 301,-205.991"/>
<polygon fill="#000000" stroke="#000000" points="297.5001,-205.9909 301,-215.991 304.5001,-205.991 297.5001,-205.9909"/>
</g>
<!-- DynamicHeightDirective  -->
<g id="node7" class="node">
<title>DynamicHeightDirective </title>
<polygon fill="#fb8072" stroke="#000000" points="185.5022,-252 24.4978,-252 24.4978,-216 185.5022,-216 185.5022,-252"/>
<text text-anchor="middle" x="105" y="-229.8" font-family="Times,serif" font-size="14.00" fill="#000000">DynamicHeightDirective </text>
</g>
<!-- MessengerModule&#45;&gt;DynamicHeightDirective  -->
<g id="edge6" class="edge">
<title>MessengerModule&#45;&gt;DynamicHeightDirective </title>
<path fill="none" stroke="#000000" stroke-dasharray="5,2" d="M240.8675,-175C176.0347,-175 81.9996,-175 81.9996,-175 81.9996,-175 81.9996,-205.9775 81.9996,-205.9775"/>
<polygon fill="#000000" stroke="#000000" points="78.4997,-205.9774 81.9996,-215.9775 85.4997,-205.9775 78.4997,-205.9774"/>
</g>
</g>
</svg>
